<svg id="visual" viewBox="0 0 960 540" width="960" height="540" xmlns="http://www.w3.org/2000/svg" xmlns:xlink="http://www.w3.org/1999/xlink" version="1.1"><rect x="0" y="0" width="960" height="540" fill="#001220"></rect><defs><linearGradient id="grad1_0" x1="43.8%" y1="0%" x2="100%" y2="100%"><stop offset="14.444444444444446%" stop-color="#fbae3c" stop-opacity="1"></stop><stop offset="85.55555555555554%" stop-color="#fbae3c" stop-opacity="1"></stop></linearGradient></defs><defs><linearGradient id="grad1_1" x1="43.8%" y1="0%" x2="100%" y2="100%"><stop offset="14.444444444444446%" stop-color="#fbae3c" stop-opacity="1"></stop><stop offset="85.55555555555554%" stop-color="#eb7458" stop-opacity="1"></stop></linearGradient></defs><defs><linearGradient id="grad1_2" x1="43.8%" y1="0%" x2="100%" y2="100%"><stop offset="14.444444444444446%" stop-color="#b84e6c" stop-opacity="1"></stop><stop offset="85.55555555555554%" stop-color="#eb7458" stop-opacity="1"></stop></linearGradient></defs><defs><linearGradient id="grad1_3" x1="43.8%" y1="0%" x2="100%" y2="100%"><stop offset="14.444444444444446%" stop-color="#b84e6c" stop-opacity="1"></stop><stop offset="85.55555555555554%" stop-color="#713c69" stop-opacity="1"></stop></linearGradient></defs><defs><linearGradient id="grad1_4" x1="43.8%" y1="0%" x2="100%" y2="100%"><stop offset="14.444444444444446%" stop-color="#2d2b4c" stop-opacity="1"></stop><stop offset="85.55555555555554%" stop-color="#713c69" stop-opacity="1"></stop></linearGradient></defs><defs><linearGradient id="grad1_5" x1="43.8%" y1="0%" x2="100%" y2="100%"><stop offset="14.444444444444446%" stop-color="#2d2b4c" stop-opacity="1"></stop><stop offset="85.55555555555554%" stop-color="#001220" stop-opacity="1"></stop></linearGradient></defs><defs><linearGradient id="grad2_0" x1="0%" y1="0%" x2="56.3%" y2="100%"><stop offset="14.444444444444446%" stop-color="#fbae3c" stop-opacity="1"></stop><stop offset="85.55555555555554%" stop-color="#fbae3c" stop-opacity="1"></stop></linearGradient></defs><defs><linearGradient id="grad2_1" x1="0%" y1="0%" x2="56.3%" y2="100%"><stop offset="14.444444444444446%" stop-color="#eb7458" stop-opacity="1"></stop><stop offset="85.55555555555554%" stop-color="#fbae3c" stop-opacity="1"></stop></linearGradient></defs><defs><linearGradient id="grad2_2" x1="0%" y1="0%" x2="56.3%" y2="100%"><stop offset="14.444444444444446%" stop-color="#eb7458" stop-opacity="1"></stop><stop offset="85.55555555555554%" stop-color="#b84e6c" stop-opacity="1"></stop></linearGradient></defs><defs><linearGradient id="grad2_3" x1="0%" y1="0%" x2="56.3%" y2="100%"><stop offset="14.444444444444446%" stop-color="#713c69" stop-opacity="1"></stop><stop offset="85.55555555555554%" stop-color="#b84e6c" stop-opacity="1"></stop></linearGradient></defs><defs><linearGradient id="grad2_4" x1="0%" y1="0%" x2="56.3%" y2="100%"><stop offset="14.444444444444446%" stop-color="#713c69" stop-opacity="1"></stop><stop offset="85.55555555555554%" stop-color="#2d2b4c" stop-opacity="1"></stop></linearGradient></defs><defs><linearGradient id="grad2_5" x1="0%" y1="0%" x2="56.3%" y2="100%"><stop offset="14.444444444444446%" stop-color="#001220" stop-opacity="1"></stop><stop offset="85.55555555555554%" stop-color="#2d2b4c" stop-opacity="1"></stop></linearGradient></defs><g transform="translate(960, 0)"><path d="M0 486C-55.8 456.9 -111.5 427.7 -167.6 404.7C-223.7 381.6 -280.1 364.6 -330.2 330.2C-380.3 295.8 -424.1 243.9 -449 186C-473.9 128 -480 64 -486 0L0 0Z" fill="#131f37"></path><path d="M0 405C-46.5 380.7 -92.9 356.4 -139.7 337.2C-186.4 318 -233.4 303.9 -275.2 275.2C-316.9 246.5 -353.4 203.3 -374.2 155C-394.9 106.7 -400 53.3 -405 0L0 0Z" fill="#4d345e"></path><path d="M0 324C-37.2 304.6 -74.4 285.1 -111.7 269.8C-149.1 254.4 -186.7 243.1 -220.1 220.1C-253.5 197.2 -282.7 162.6 -299.3 124C-315.9 85.4 -320 42.7 -324 0L0 0Z" fill="#96446e"></path><path d="M0 243C-27.9 228.4 -55.8 213.9 -83.8 202.3C-111.9 190.8 -140.1 182.3 -165.1 165.1C-190.2 147.9 -212 122 -224.5 93C-237 64 -240 32 -243 0L0 0Z" fill="#d55e64"></path><path d="M0 162C-18.6 152.3 -37.2 142.6 -55.9 134.9C-74.6 127.2 -93.4 121.5 -110.1 110.1C-126.8 98.6 -141.4 81.3 -149.7 62C-158 42.7 -160 21.3 -162 0L0 0Z" fill="#f88f4a"></path><path d="M0 81C-9.3 76.1 -18.6 71.3 -27.9 67.4C-37.3 63.6 -46.7 60.8 -55 55C-63.4 49.3 -70.7 40.7 -74.8 31C-79 21.3 -80 10.7 -81 0L0 0Z" fill="#fbae3c"></path></g><g transform="translate(0, 540)"><path d="M0 -486C68.6 -483.7 137.1 -481.4 186 -449C234.8 -416.7 263.9 -354.3 308.3 -308.3C352.6 -262.3 412.2 -232.7 444.4 -184.1C476.5 -135.4 481.3 -67.7 486 0L0 0Z" fill="#131f37"></path><path d="M0 -405C57.1 -403.1 114.3 -401.1 155 -374.2C195.7 -347.2 220 -295.2 256.9 -256.9C293.9 -218.6 343.5 -193.9 370.3 -153.4C397.1 -112.8 401.1 -56.4 405 0L0 0Z" fill="#4d345e"></path><path d="M0 -324C45.7 -322.5 91.4 -320.9 124 -299.3C156.6 -277.8 176 -236.2 205.5 -205.5C235.1 -174.9 274.8 -155.1 296.3 -122.7C317.7 -90.3 320.8 -45.1 324 0L0 0Z" fill="#96446e"></path><path d="M0 -243C34.3 -241.8 68.6 -240.7 93 -224.5C117.4 -208.3 132 -177.1 154.1 -154.1C176.3 -131.2 206.1 -116.4 222.2 -92C238.3 -67.7 240.6 -33.9 243 0L0 0Z" fill="#d55e64"></path><path d="M0 -162C22.9 -161.2 45.7 -160.5 62 -149.7C78.3 -138.9 88 -118.1 102.8 -102.8C117.5 -87.4 137.4 -77.6 148.1 -61.4C158.8 -45.1 160.4 -22.6 162 0L0 0Z" fill="#f88f4a"></path><path d="M0 -81C11.4 -80.6 22.9 -80.2 31 -74.8C39.1 -69.4 44 -59 51.4 -51.4C58.8 -43.7 68.7 -38.8 74.1 -30.7C79.4 -22.6 80.2 -11.3 81 0L0 0Z" fill="#fbae3c"></path></g></svg>