<svg id="visual" viewBox="0 0 900 600" width="900" height="600" xmlns="http://www.w3.org/2000/svg" xmlns:xlink="http://www.w3.org/1999/xlink" version="1.1"><rect x="0" y="0" width="900" height="600" fill="#fff170"></rect><defs><linearGradient id="grad1_0" x1="33.3%" y1="0%" x2="100%" y2="100%"><stop offset="20%" stop-color="#526b9c" stop-opacity="1"></stop><stop offset="80%" stop-color="#526b9c" stop-opacity="1"></stop></linearGradient></defs><defs><linearGradient id="grad1_1" x1="33.3%" y1="0%" x2="100%" y2="100%"><stop offset="20%" stop-color="#526b9c" stop-opacity="1"></stop><stop offset="80%" stop-color="#0097bf" stop-opacity="1"></stop></linearGradient></defs><defs><linearGradient id="grad1_2" x1="33.3%" y1="0%" x2="100%" y2="100%"><stop offset="20%" stop-color="#00c0b7" stop-opacity="1"></stop><stop offset="80%" stop-color="#0097bf" stop-opacity="1"></stop></linearGradient></defs><defs><linearGradient id="grad1_3" x1="33.3%" y1="0%" x2="100%" y2="100%"><stop offset="20%" stop-color="#00c0b7" stop-opacity="1"></stop><stop offset="80%" stop-color="#81e08d" stop-opacity="1"></stop></linearGradient></defs><defs><linearGradient id="grad1_4" x1="33.3%" y1="0%" x2="100%" y2="100%"><stop offset="20%" stop-color="#fff170" stop-opacity="1"></stop><stop offset="80%" stop-color="#81e08d" stop-opacity="1"></stop></linearGradient></defs><defs><linearGradient id="grad2_0" x1="0%" y1="0%" x2="66.7%" y2="100%"><stop offset="20%" stop-color="#526b9c" stop-opacity="1"></stop><stop offset="80%" stop-color="#526b9c" stop-opacity="1"></stop></linearGradient></defs><defs><linearGradient id="grad2_1" x1="0%" y1="0%" x2="66.7%" y2="100%"><stop offset="20%" stop-color="#0097bf" stop-opacity="1"></stop><stop offset="80%" stop-color="#526b9c" stop-opacity="1"></stop></linearGradient></defs><defs><linearGradient id="grad2_2" x1="0%" y1="0%" x2="66.7%" y2="100%"><stop offset="20%" stop-color="#0097bf" stop-opacity="1"></stop><stop offset="80%" stop-color="#00c0b7" stop-opacity="1"></stop></linearGradient></defs><defs><linearGradient id="grad2_3" x1="0%" y1="0%" x2="66.7%" y2="100%"><stop offset="20%" stop-color="#81e08d" stop-opacity="1"></stop><stop offset="80%" stop-color="#00c0b7" stop-opacity="1"></stop></linearGradient></defs><defs><linearGradient id="grad2_4" x1="0%" y1="0%" x2="66.7%" y2="100%"><stop offset="20%" stop-color="#81e08d" stop-opacity="1"></stop><stop offset="80%" stop-color="#fff170" stop-opacity="1"></stop></linearGradient></defs><g transform="translate(900, 0)"><path d="M0 432.7C-30.9 419.4 -61.8 406.2 -90.1 394.8C-118.4 383.5 -144 374 -177.9 369.4C-211.8 364.8 -253.9 365.2 -269.8 338.3C-285.7 311.3 -275.4 257.1 -280.7 223.8C-286 190.6 -307 178.4 -335.2 161.4C-363.4 144.4 -398.8 122.7 -416.3 95C-433.8 67.3 -433.2 33.7 -432.7 0L0 0Z" fill="#c0eb79"></path><path d="M0 346.1C-24.7 335.6 -49.5 325 -72.1 315.9C-94.7 306.8 -115.2 299.2 -142.3 295.5C-169.4 291.9 -203.1 292.2 -215.8 270.6C-228.5 249.1 -220.3 205.7 -224.5 179.1C-228.8 152.5 -245.6 142.7 -268.1 129.1C-290.7 115.5 -319.1 98.2 -333 76C-347 53.9 -346.6 26.9 -346.1 0L0 0Z" fill="#3bd2a4"></path><path d="M0 259.6C-18.6 251.7 -37.1 243.7 -54.1 236.9C-71 230.1 -86.4 224.4 -106.7 221.6C-127.1 218.9 -152.3 219.1 -161.9 203C-171.4 186.8 -165.2 154.2 -168.4 134.3C-171.6 114.4 -184.2 107 -201.1 96.8C-218 86.7 -239.3 73.6 -249.8 57C-260.3 40.4 -259.9 20.2 -259.6 0L0 0Z" fill="#00acc1"></path><path d="M0 173.1C-12.4 167.8 -24.7 162.5 -36 157.9C-47.4 153.4 -57.6 149.6 -71.2 147.8C-84.7 145.9 -101.5 146.1 -107.9 135.3C-114.3 124.5 -110.1 102.8 -112.3 89.5C-114.4 76.2 -122.8 71.4 -134.1 64.6C-145.3 57.8 -159.5 49.1 -166.5 38C-173.5 26.9 -173.3 13.5 -173.1 0L0 0Z" fill="#2f81b2"></path><path d="M0 86.5C-6.2 83.9 -12.4 81.2 -18 79C-23.7 76.7 -28.8 74.8 -35.6 73.9C-42.4 73 -50.8 73 -54 67.7C-57.1 62.3 -55.1 51.4 -56.1 44.8C-57.2 38.1 -61.4 35.7 -67 32.3C-72.7 28.9 -79.8 24.5 -83.3 19C-86.8 13.5 -86.6 6.7 -86.5 0L0 0Z" fill="#526b9c"></path></g><g transform="translate(0, 600)"><path d="M0 -432.7C33.5 -423.2 67.1 -413.7 88.6 -388C110 -362.4 119.5 -320.5 152.3 -316.2C185.1 -311.9 241.3 -345.2 268.1 -336.2C294.9 -327.2 292.4 -276 307.3 -245C322.2 -214 354.5 -203.2 377.5 -181.8C400.5 -160.4 414.2 -128.3 421.8 -96.3C429.5 -64.2 431.1 -32.1 432.7 0L0 0Z" fill="#c0eb79"></path><path d="M0 -346.1C26.8 -338.5 53.7 -330.9 70.9 -310.4C88 -289.9 95.6 -256.4 121.8 -253C148.1 -249.6 193 -276.1 214.5 -269C235.9 -261.8 233.9 -220.8 245.8 -196C257.7 -171.2 283.6 -162.6 302 -145.4C320.4 -128.3 331.3 -102.7 337.5 -77C343.6 -51.4 344.8 -25.7 346.1 0L0 0Z" fill="#3bd2a4"></path><path d="M0 -259.6C20.1 -253.9 40.2 -248.2 53.1 -232.8C66 -217.4 71.7 -192.3 91.4 -189.7C111.1 -187.2 144.8 -207.1 160.9 -201.7C176.9 -196.3 175.4 -165.6 184.4 -147C193.3 -128.4 212.7 -121.9 226.5 -109.1C240.3 -96.2 248.5 -77 253.1 -57.8C257.7 -38.5 258.6 -19.3 259.6 0L0 0Z" fill="#00acc1"></path><path d="M0 -173.1C13.4 -169.3 26.8 -165.5 35.4 -155.2C44 -144.9 47.8 -128.2 60.9 -126.5C74 -124.8 96.5 -138.1 107.2 -134.5C118 -130.9 116.9 -110.4 122.9 -98C128.9 -85.6 141.8 -81.3 151 -72.7C160.2 -64.1 165.7 -51.3 168.7 -38.5C171.8 -25.7 172.4 -12.8 173.1 0L0 0Z" fill="#2f81b2"></path><path d="M0 -86.5C6.7 -84.6 13.4 -82.7 17.7 -77.6C22 -72.5 23.9 -64.1 30.5 -63.2C37 -62.4 48.3 -69 53.6 -67.2C59 -65.4 58.5 -55.2 61.5 -49C64.4 -42.8 70.9 -40.6 75.5 -36.4C80.1 -32.1 82.8 -25.7 84.4 -19.3C85.9 -12.8 86.2 -6.4 86.5 0L0 0Z" fill="#526b9c"></path></g></svg>