<svg id="visual" viewBox="0 0 675 900" width="675" height="900" xmlns="http://www.w3.org/2000/svg" xmlns:xlink="http://www.w3.org/1999/xlink" version="1.1"><rect x="0" y="0" width="675" height="900" fill="#001220"></rect><defs><linearGradient id="grad1_0" x1="0%" y1="0%" x2="100%" y2="100%"><stop offset="30%" stop-color="#fbae3c" stop-opacity="1"></stop><stop offset="70%" stop-color="#fbae3c" stop-opacity="1"></stop></linearGradient></defs><defs><linearGradient id="grad1_1" x1="0%" y1="0%" x2="100%" y2="100%"><stop offset="30%" stop-color="#fbae3c" stop-opacity="1"></stop><stop offset="70%" stop-color="#eb7458" stop-opacity="1"></stop></linearGradient></defs><defs><linearGradient id="grad1_2" x1="0%" y1="0%" x2="100%" y2="100%"><stop offset="30%" stop-color="#b84e6c" stop-opacity="1"></stop><stop offset="70%" stop-color="#eb7458" stop-opacity="1"></stop></linearGradient></defs><defs><linearGradient id="grad1_3" x1="0%" y1="0%" x2="100%" y2="100%"><stop offset="30%" stop-color="#b84e6c" stop-opacity="1"></stop><stop offset="70%" stop-color="#713c69" stop-opacity="1"></stop></linearGradient></defs><defs><linearGradient id="grad1_4" x1="0%" y1="0%" x2="100%" y2="100%"><stop offset="30%" stop-color="#2d2b4c" stop-opacity="1"></stop><stop offset="70%" stop-color="#713c69" stop-opacity="1"></stop></linearGradient></defs><defs><linearGradient id="grad1_5" x1="0%" y1="0%" x2="100%" y2="100%"><stop offset="30%" stop-color="#2d2b4c" stop-opacity="1"></stop><stop offset="70%" stop-color="#001220" stop-opacity="1"></stop></linearGradient></defs><defs><linearGradient id="grad2_0" x1="0%" y1="0%" x2="100%" y2="100%"><stop offset="30%" stop-color="#fbae3c" stop-opacity="1"></stop><stop offset="70%" stop-color="#fbae3c" stop-opacity="1"></stop></linearGradient></defs><defs><linearGradient id="grad2_1" x1="0%" y1="0%" x2="100%" y2="100%"><stop offset="30%" stop-color="#eb7458" stop-opacity="1"></stop><stop offset="70%" stop-color="#fbae3c" stop-opacity="1"></stop></linearGradient></defs><defs><linearGradient id="grad2_2" x1="0%" y1="0%" x2="100%" y2="100%"><stop offset="30%" stop-color="#eb7458" stop-opacity="1"></stop><stop offset="70%" stop-color="#b84e6c" stop-opacity="1"></stop></linearGradient></defs><defs><linearGradient id="grad2_3" x1="0%" y1="0%" x2="100%" y2="100%"><stop offset="30%" stop-color="#713c69" stop-opacity="1"></stop><stop offset="70%" stop-color="#b84e6c" stop-opacity="1"></stop></linearGradient></defs><defs><linearGradient id="grad2_4" x1="0%" y1="0%" x2="100%" y2="100%"><stop offset="30%" stop-color="#713c69" stop-opacity="1"></stop><stop offset="70%" stop-color="#2d2b4c" stop-opacity="1"></stop></linearGradient></defs><defs><linearGradient id="grad2_5" x1="0%" y1="0%" x2="100%" y2="100%"><stop offset="30%" stop-color="#001220" stop-opacity="1"></stop><stop offset="70%" stop-color="#2d2b4c" stop-opacity="1"></stop></linearGradient></defs><g transform="translate(675, 0)"><path d="M0 506.3C-33.4 465.5 -66.9 424.7 -112.8 421.1C-158.8 417.6 -217.3 451.3 -253.1 438.4C-288.9 425.6 -302 366.3 -324.6 324.6C-347.2 282.9 -379.3 258.8 -389.7 225C-400.2 191.2 -388.9 147.6 -404.7 108.4C-420.5 69.3 -463.4 34.7 -506.2 0L0 0Z" fill="#131f37"></path><path d="M0 421.9C-27.9 387.9 -55.7 353.9 -94 351C-132.4 348 -181.1 376 -210.9 365.4C-240.8 354.7 -251.6 305.2 -270.5 270.5C-289.3 235.7 -316.1 215.7 -324.8 187.5C-333.5 159.3 -324.1 123 -337.3 90.4C-350.4 57.8 -386.2 28.9 -421.9 0L0 0Z" fill="#4d345e"></path><path d="M0 337.5C-22.3 310.3 -44.6 283.1 -75.2 280.8C-105.9 278.4 -144.9 300.8 -168.7 292.3C-192.6 283.7 -201.3 244.2 -216.4 216.4C-231.4 188.6 -252.8 172.5 -259.8 150C-266.8 127.5 -259.3 98.4 -269.8 72.3C-280.4 46.2 -308.9 23.1 -337.5 0L0 0Z" fill="#96446e"></path><path d="M0 253.1C-16.7 232.7 -33.4 212.3 -56.4 210.6C-79.4 208.8 -108.7 225.6 -126.6 219.2C-144.5 212.8 -151 183.1 -162.3 162.3C-173.6 141.4 -189.6 129.4 -194.9 112.5C-200.1 95.6 -194.5 73.8 -202.4 54.2C-210.3 34.7 -231.7 17.3 -253.1 0L0 0Z" fill="#d55e64"></path><path d="M0 168.8C-11.1 155.2 -22.3 141.6 -37.6 140.4C-52.9 139.2 -72.4 150.4 -84.4 146.1C-96.3 141.9 -100.7 122.1 -108.2 108.2C-115.7 94.3 -126.4 86.3 -129.9 75C-133.4 63.7 -129.6 49.2 -134.9 36.1C-140.2 23.1 -154.5 11.6 -168.7 0L0 0Z" fill="#f88f4a"></path><path d="M0 84.4C-5.6 77.6 -11.1 70.8 -18.8 70.2C-26.5 69.6 -36.2 75.2 -42.2 73.1C-48.2 70.9 -50.3 61 -54.1 54.1C-57.9 47.1 -63.2 43.1 -65 37.5C-66.7 31.9 -64.8 24.6 -67.5 18.1C-70.1 11.6 -77.2 5.8 -84.4 0L0 0Z" fill="#fbae3c"></path></g><g transform="translate(0, 900)"><path d="M0 -506.2C30.2 -451.7 60.5 -397.1 105.6 -394.1C150.7 -391.1 210.8 -439.6 253.1 -438.4C295.5 -437.3 320 -386.4 347.9 -347.9C375.7 -309.4 406.8 -283.2 431.3 -249C455.7 -214.8 473.5 -172.8 484.9 -129.9C496.3 -87.1 501.3 -43.6 506.3 0L0 0Z" fill="#131f37"></path><path d="M0 -421.9C25.2 -376.4 50.4 -330.9 88 -328.4C125.6 -325.9 175.7 -366.3 210.9 -365.4C246.2 -364.4 266.7 -322 289.9 -289.9C313.1 -257.8 339 -236 359.4 -207.5C379.8 -179 394.6 -144 404.1 -108.3C413.6 -72.6 417.7 -36.3 421.9 0L0 0Z" fill="#4d345e"></path><path d="M0 -337.5C20.2 -301.1 40.3 -264.7 70.4 -262.7C100.5 -260.7 140.5 -293.1 168.7 -292.3C197 -291.5 213.4 -257.6 231.9 -231.9C250.5 -206.2 271.2 -188.8 287.5 -166C303.8 -143.2 315.7 -115.2 323.3 -86.6C330.9 -58.1 334.2 -29 337.5 0L0 0Z" fill="#96446e"></path><path d="M0 -253.1C15.1 -225.8 30.2 -198.6 52.8 -197C75.4 -195.5 105.4 -219.8 126.6 -219.2C147.7 -218.6 160 -193.2 173.9 -173.9C187.9 -154.7 203.4 -141.6 215.6 -124.5C227.9 -107.4 236.8 -86.4 242.4 -65C248.1 -43.6 250.6 -21.8 253.1 0L0 0Z" fill="#d55e64"></path><path d="M0 -168.7C10.1 -150.6 20.2 -132.4 35.2 -131.4C50.2 -130.4 70.3 -146.5 84.4 -146.1C98.5 -145.8 106.7 -128.8 116 -116C125.2 -103.1 135.6 -94.4 143.8 -83C151.9 -71.6 157.8 -57.6 161.6 -43.3C165.4 -29 167.1 -14.5 168.8 0L0 0Z" fill="#f88f4a"></path><path d="M0 -84.4C5 -75.3 10.1 -66.2 17.6 -65.7C25.1 -65.2 35.1 -73.3 42.2 -73.1C49.2 -72.9 53.3 -64.4 58 -58C62.6 -51.6 67.8 -47.2 71.9 -41.5C76 -35.8 78.9 -28.8 80.8 -21.7C82.7 -14.5 83.5 -7.3 84.4 0L0 0Z" fill="#fbae3c"></path></g></svg>