<svg id="visual" viewBox="0 0 900 600" width="900" height="600" xmlns="http://www.w3.org/2000/svg" xmlns:xlink="http://www.w3.org/1999/xlink" version="1.1"><rect x="0" y="0" width="900" height="600" fill="#F7CACA"></rect><defs><linearGradient id="grad1_0" x1="33.3%" y1="0%" x2="100%" y2="100%"><stop offset="20%" stop-color="#5ea5dd" stop-opacity="1"></stop><stop offset="80%" stop-color="#5ea5dd" stop-opacity="1"></stop></linearGradient></defs><defs><linearGradient id="grad1_1" x1="33.3%" y1="0%" x2="100%" y2="100%"><stop offset="20%" stop-color="#5ea5dd" stop-opacity="1"></stop><stop offset="80%" stop-color="#a3a8e0" stop-opacity="1"></stop></linearGradient></defs><defs><linearGradient id="grad1_2" x1="33.3%" y1="0%" x2="100%" y2="100%"><stop offset="20%" stop-color="#d1aed8" stop-opacity="1"></stop><stop offset="80%" stop-color="#a3a8e0" stop-opacity="1"></stop></linearGradient></defs><defs><linearGradient id="grad1_3" x1="33.3%" y1="0%" x2="100%" y2="100%"><stop offset="20%" stop-color="#d1aed8" stop-opacity="1"></stop><stop offset="80%" stop-color="#ecb9ce" stop-opacity="1"></stop></linearGradient></defs><defs><linearGradient id="grad1_4" x1="33.3%" y1="0%" x2="100%" y2="100%"><stop offset="20%" stop-color="#f7caca" stop-opacity="1"></stop><stop offset="80%" stop-color="#ecb9ce" stop-opacity="1"></stop></linearGradient></defs><defs><linearGradient id="grad2_0" x1="0%" y1="0%" x2="66.7%" y2="100%"><stop offset="20%" stop-color="#5ea5dd" stop-opacity="1"></stop><stop offset="80%" stop-color="#5ea5dd" stop-opacity="1"></stop></linearGradient></defs><defs><linearGradient id="grad2_1" x1="0%" y1="0%" x2="66.7%" y2="100%"><stop offset="20%" stop-color="#a3a8e0" stop-opacity="1"></stop><stop offset="80%" stop-color="#5ea5dd" stop-opacity="1"></stop></linearGradient></defs><defs><linearGradient id="grad2_2" x1="0%" y1="0%" x2="66.7%" y2="100%"><stop offset="20%" stop-color="#a3a8e0" stop-opacity="1"></stop><stop offset="80%" stop-color="#d1aed8" stop-opacity="1"></stop></linearGradient></defs><defs><linearGradient id="grad2_3" x1="0%" y1="0%" x2="66.7%" y2="100%"><stop offset="20%" stop-color="#ecb9ce" stop-opacity="1"></stop><stop offset="80%" stop-color="#d1aed8" stop-opacity="1"></stop></linearGradient></defs><defs><linearGradient id="grad2_4" x1="0%" y1="0%" x2="66.7%" y2="100%"><stop offset="20%" stop-color="#ecb9ce" stop-opacity="1"></stop><stop offset="80%" stop-color="#f7caca" stop-opacity="1"></stop></linearGradient></defs><g transform="translate(900, 0)"><path d="M0 432.7C-29.4 429 -58.8 425.4 -80.8 406C-102.7 386.7 -117.3 351.5 -139.3 336.3C-161.3 321.1 -190.8 325.8 -211.1 316C-231.4 306.2 -242.5 281.9 -268 268C-293.5 254.1 -333.3 250.7 -343.4 229.5C-353.4 208.2 -333.7 169 -346.5 143.5C-359.2 118 -404.6 106.1 -424.4 84.4C-444.1 62.8 -438.4 31.4 -432.7 0L0 0Z" fill="#f3c1cb"></path><path d="M0 346.1C-23.5 343.2 -47 340.3 -64.6 324.8C-82.2 309.3 -93.8 281.2 -111.4 269C-129.1 256.9 -152.7 260.6 -168.9 252.8C-185.1 244.9 -194 225.5 -214.4 214.4C-234.8 203.3 -266.7 200.6 -274.7 183.6C-282.8 166.5 -266.9 135.2 -277.2 114.8C-287.4 94.4 -323.6 84.8 -339.5 67.5C-355.3 50.2 -350.7 25.1 -346.1 0L0 0Z" fill="#e0b3d3"></path><path d="M0 259.6C-17.6 257.4 -35.3 255.3 -48.5 243.6C-61.6 232 -70.4 210.9 -83.6 201.8C-96.8 192.6 -114.5 195.5 -126.7 189.6C-138.8 183.7 -145.5 169.1 -160.8 160.8C-176.1 152.5 -200 150.4 -206 137.7C-212.1 124.9 -200.2 101.4 -207.9 86.1C-215.5 70.8 -242.7 63.6 -254.6 50.6C-266.5 37.7 -263 18.8 -259.6 0L0 0Z" fill="#bdaadd"></path><path d="M0 173.1C-11.8 171.6 -23.5 170.2 -32.3 162.4C-41.1 154.7 -46.9 140.6 -55.7 134.5C-64.5 128.4 -76.3 130.3 -84.4 126.4C-92.6 122.5 -97 112.7 -107.2 107.2C-117.4 101.7 -133.3 100.3 -137.4 91.8C-141.4 83.3 -133.5 67.6 -138.6 57.4C-143.7 47.2 -161.8 42.4 -169.7 33.8C-177.7 25.1 -175.4 12.6 -173.1 0L0 0Z" fill="#84a6e1"></path><path d="M0 86.5C-5.9 85.8 -11.8 85.1 -16.2 81.2C-20.5 77.3 -23.5 70.3 -27.9 67.3C-32.3 64.2 -38.2 65.2 -42.2 63.2C-46.3 61.2 -48.5 56.4 -53.6 53.6C-58.7 50.8 -66.7 50.1 -68.7 45.9C-70.7 41.6 -66.7 33.8 -69.3 28.7C-71.8 23.6 -80.9 21.2 -84.9 16.9C-88.8 12.6 -87.7 6.3 -86.5 0L0 0Z" fill="#5ea5dd"></path></g><g transform="translate(0, 600)"><path d="M0 -432.7C22.1 -395.3 44.1 -357.9 69.8 -351.1C95.6 -344.3 125 -368.1 155 -374.2C185 -380.3 215.6 -368.7 230.6 -345.1C245.6 -321.5 245 -285.9 270.8 -270.8C296.6 -255.8 348.8 -261.2 359.7 -240.4C370.7 -219.5 340.6 -172.4 345.5 -143.1C350.5 -113.9 390.6 -102.6 410.9 -81.7C431.3 -60.9 432 -30.4 432.7 0L0 0Z" fill="#f3c1cb"></path><path d="M0 -346.1C17.6 -316.2 35.3 -286.3 55.9 -280.9C76.5 -275.5 100 -294.5 124 -299.3C148 -304.2 172.4 -294.9 184.4 -276C196.5 -257.2 196 -228.7 216.7 -216.7C237.3 -204.6 279 -209 287.8 -192.3C296.6 -175.6 272.5 -137.9 276.4 -114.5C280.4 -91.1 312.5 -82.1 328.8 -65.4C345.1 -48.7 345.6 -24.4 346.1 0L0 0Z" fill="#e0b3d3"></path><path d="M0 -259.6C13.2 -237.2 26.5 -214.8 41.9 -210.7C57.3 -206.6 75 -220.9 93 -224.5C111 -228.2 129.3 -221.2 138.3 -207C147.3 -192.9 147 -171.5 162.5 -162.5C178 -153.5 209.3 -156.7 215.8 -144.2C222.4 -131.7 204.3 -103.4 207.3 -85.9C210.3 -68.3 234.3 -61.6 246.6 -49C258.8 -36.5 259.2 -18.3 259.6 0L0 0Z" fill="#bdaadd"></path><path d="M0 -173.1C8.8 -158.1 17.6 -143.2 27.9 -140.4C38.2 -137.7 50 -147.2 62 -149.7C74 -152.1 86.2 -147.5 92.2 -138C98.2 -128.6 98 -114.4 108.3 -108.3C118.6 -102.3 139.5 -104.5 143.9 -96.2C148.3 -87.8 136.2 -68.9 138.2 -57.2C140.2 -45.6 156.2 -41 164.4 -32.7C172.5 -24.4 172.8 -12.2 173.1 0L0 0Z" fill="#84a6e1"></path><path d="M0 -86.5C4.4 -79.1 8.8 -71.6 14 -70.2C19.1 -68.9 25 -73.6 31 -74.8C37 -76.1 43.1 -73.7 46.1 -69C49.1 -64.3 49 -57.2 54.2 -54.2C59.3 -51.2 69.8 -52.2 71.9 -48.1C74.1 -43.9 68.1 -34.5 69.1 -28.6C70.1 -22.8 78.1 -20.5 82.2 -16.3C86.3 -12.2 86.4 -6.1 86.5 0L0 0Z" fill="#5ea5dd"></path></g></svg>