<svg id="visual" viewBox="0 0 900 600" width="900" height="600" xmlns="http://www.w3.org/2000/svg" xmlns:xlink="http://www.w3.org/1999/xlink" version="1.1"><rect x="0" y="0" width="900" height="600" fill="#001220"></rect><defs><linearGradient id="grad1_0" x1="33.3%" y1="0%" x2="100%" y2="100%"><stop offset="20%" stop-color="#fcaf3c" stop-opacity="1"></stop><stop offset="80%" stop-color="#fcaf3c" stop-opacity="1"></stop></linearGradient></defs><defs><linearGradient id="grad1_1" x1="33.3%" y1="0%" x2="100%" y2="100%"><stop offset="20%" stop-color="#fcaf3c" stop-opacity="1"></stop><stop offset="80%" stop-color="#f27d53" stop-opacity="1"></stop></linearGradient></defs><defs><linearGradient id="grad1_2" x1="33.3%" y1="0%" x2="100%" y2="100%"><stop offset="20%" stop-color="#cd5867" stop-opacity="1"></stop><stop offset="80%" stop-color="#f27d53" stop-opacity="1"></stop></linearGradient></defs><defs><linearGradient id="grad1_3" x1="33.3%" y1="0%" x2="100%" y2="100%"><stop offset="20%" stop-color="#cd5867" stop-opacity="1"></stop><stop offset="80%" stop-color="#97446e" stop-opacity="1"></stop></linearGradient></defs><defs><linearGradient id="grad1_4" x1="33.3%" y1="0%" x2="100%" y2="100%"><stop offset="20%" stop-color="#5a3763" stop-opacity="1"></stop><stop offset="80%" stop-color="#97446e" stop-opacity="1"></stop></linearGradient></defs><defs><linearGradient id="grad1_5" x1="33.3%" y1="0%" x2="100%" y2="100%"><stop offset="20%" stop-color="#5a3763" stop-opacity="1"></stop><stop offset="80%" stop-color="#242746" stop-opacity="1"></stop></linearGradient></defs><defs><linearGradient id="grad1_6" x1="33.3%" y1="0%" x2="100%" y2="100%"><stop offset="20%" stop-color="#001220" stop-opacity="1"></stop><stop offset="80%" stop-color="#242746" stop-opacity="1"></stop></linearGradient></defs><defs><linearGradient id="grad2_0" x1="0%" y1="0%" x2="66.7%" y2="100%"><stop offset="20%" stop-color="#fcaf3c" stop-opacity="1"></stop><stop offset="80%" stop-color="#fcaf3c" stop-opacity="1"></stop></linearGradient></defs><defs><linearGradient id="grad2_1" x1="0%" y1="0%" x2="66.7%" y2="100%"><stop offset="20%" stop-color="#f27d53" stop-opacity="1"></stop><stop offset="80%" stop-color="#fcaf3c" stop-opacity="1"></stop></linearGradient></defs><defs><linearGradient id="grad2_2" x1="0%" y1="0%" x2="66.7%" y2="100%"><stop offset="20%" stop-color="#f27d53" stop-opacity="1"></stop><stop offset="80%" stop-color="#cd5867" stop-opacity="1"></stop></linearGradient></defs><defs><linearGradient id="grad2_3" x1="0%" y1="0%" x2="66.7%" y2="100%"><stop offset="20%" stop-color="#97446e" stop-opacity="1"></stop><stop offset="80%" stop-color="#cd5867" stop-opacity="1"></stop></linearGradient></defs><defs><linearGradient id="grad2_4" x1="0%" y1="0%" x2="66.7%" y2="100%"><stop offset="20%" stop-color="#97446e" stop-opacity="1"></stop><stop offset="80%" stop-color="#5a3763" stop-opacity="1"></stop></linearGradient></defs><defs><linearGradient id="grad2_5" x1="0%" y1="0%" x2="66.7%" y2="100%"><stop offset="20%" stop-color="#242746" stop-opacity="1"></stop><stop offset="80%" stop-color="#5a3763" stop-opacity="1"></stop></linearGradient></defs><defs><linearGradient id="grad2_6" x1="0%" y1="0%" x2="66.7%" y2="100%"><stop offset="20%" stop-color="#242746" stop-opacity="1"></stop><stop offset="80%" stop-color="#001220" stop-opacity="1"></stop></linearGradient></defs><g transform="translate(900, 0)"><path d="M0 432.7C-37.9 423.1 -75.9 413.6 -104.3 389.3C-132.8 365 -151.7 325.9 -176 304.8C-200.3 283.8 -229.9 280.7 -272.2 272.2C-314.6 263.8 -369.6 249.9 -374.7 216.3C-379.8 182.7 -334.8 129.4 -336.1 90.1C-337.5 50.7 -385.1 25.4 -432.7 0L0 0Z" fill="#0f1d33"></path><path d="M0 370.9C-32.5 362.7 -65 354.5 -89.4 333.7C-113.8 312.8 -130 279.3 -150.9 261.3C-171.7 243.2 -197.1 240.6 -233.3 233.3C-269.6 226.1 -316.8 214.2 -321.2 185.4C-325.5 156.6 -287 110.9 -288.1 77.2C-289.3 43.5 -330.1 21.7 -370.9 0L0 0Z" fill="#3d3056"></path><path d="M0 309C-27.1 302.2 -54.2 295.4 -74.5 278C-94.8 260.7 -108.4 232.8 -125.7 217.7C-143.1 202.7 -164.2 200.5 -194.5 194.5C-224.7 188.4 -264 178.5 -267.6 154.5C-271.3 130.5 -239.2 92.4 -240.1 64.3C-241 36.2 -275 18.1 -309 0L0 0Z" fill="#783e6b"></path><path d="M0 247.2C-21.7 241.8 -43.3 236.3 -59.6 222.4C-75.9 208.6 -86.7 186.2 -100.6 174.2C-114.4 162.2 -131.4 160.4 -155.6 155.6C-179.8 150.7 -211.2 142.8 -214.1 123.6C-217 104.4 -191.3 74 -192.1 51.5C-192.8 29 -220 14.5 -247.2 0L0 0Z" fill="#b44d6d"></path><path d="M0 185.4C-16.3 181.3 -32.5 177.2 -44.7 166.8C-56.9 156.4 -65 139.7 -75.4 130.6C-85.8 121.6 -98.5 120.3 -116.7 116.7C-134.8 113 -158.4 107.1 -160.6 92.7C-162.8 78.3 -143.5 55.5 -144.1 38.6C-144.6 21.7 -165 10.9 -185.4 0L0 0Z" fill="#e2695f"></path><path d="M0 123.6C-10.8 120.9 -21.7 118.2 -29.8 111.2C-37.9 104.3 -43.3 93.1 -50.3 87.1C-57.2 81.1 -65.7 80.2 -77.8 77.8C-89.9 75.4 -105.6 71.4 -107.1 61.8C-108.5 52.2 -95.7 37 -96 25.7C-96.4 14.5 -110 7.2 -123.6 0L0 0Z" fill="#fa9547"></path><path d="M0 61.8C-5.4 60.4 -10.8 59.1 -14.9 55.6C-19 52.1 -21.7 46.6 -25.1 43.5C-28.6 40.5 -32.8 40.1 -38.9 38.9C-44.9 37.7 -52.8 35.7 -53.5 30.9C-54.3 26.1 -47.8 18.5 -48 12.9C-48.2 7.2 -55 3.6 -61.8 0L0 0Z" fill="#fcaf3c"></path></g><g transform="translate(0, 600)"><path d="M0 -432.7C26.1 -388.7 52.3 -344.8 91.4 -341C130.5 -337.2 182.5 -373.5 210.5 -364.6C238.5 -355.7 242.3 -301.5 273.7 -273.7C305 -245.8 363.7 -244.2 374.7 -216.3C385.7 -188.5 348.9 -134.4 350.6 -94C352.3 -53.5 392.5 -26.8 432.7 0L0 0Z" fill="#0f1d33"></path><path d="M0 -370.9C22.4 -333.2 44.8 -295.5 78.3 -292.3C111.8 -289 156.5 -320.1 180.4 -312.5C204.4 -304.9 207.7 -258.5 234.6 -234.6C261.4 -210.7 311.7 -209.3 321.2 -185.4C330.6 -161.6 299.1 -115.2 300.5 -80.5C302 -45.9 336.4 -22.9 370.9 0L0 0Z" fill="#3d3056"></path><path d="M0 -309C18.7 -277.7 37.3 -246.3 65.3 -243.6C93.2 -240.8 130.4 -266.8 150.4 -260.4C170.3 -254.1 173.1 -215.4 195.5 -195.5C217.8 -175.6 259.8 -174.4 267.6 -154.5C275.5 -134.6 249.2 -96 250.5 -67.1C251.7 -38.2 280.4 -19.1 309 0L0 0Z" fill="#783e6b"></path><path d="M0 -247.2C14.9 -222.1 29.9 -197 52.2 -194.8C74.6 -192.7 104.3 -213.4 120.3 -208.3C136.3 -203.2 138.5 -172.3 156.4 -156.4C174.3 -140.4 207.8 -139.5 214.1 -123.6C220.4 -107.7 199.4 -76.8 200.4 -53.7C201.3 -30.6 224.3 -15.3 247.2 0L0 0Z" fill="#b44d6d"></path><path d="M0 -185.4C11.2 -166.6 22.4 -147.8 39.2 -146.1C55.9 -144.5 78.2 -160.1 90.2 -156.3C102.2 -152.4 103.9 -129.2 117.3 -117.3C130.7 -105.3 155.9 -104.6 160.6 -92.7C165.3 -80.8 149.5 -57.6 150.3 -40.3C151 -22.9 168.2 -11.5 185.4 0L0 0Z" fill="#e2695f"></path><path d="M0 -123.6C7.5 -111.1 14.9 -98.5 26.1 -97.4C37.3 -96.3 52.2 -106.7 60.1 -104.2C68.1 -101.6 69.2 -86.2 78.2 -78.2C87.1 -70.2 103.9 -69.8 107.1 -61.8C110.2 -53.9 99.7 -38.4 100.2 -26.8C100.7 -15.3 112.1 -7.6 123.6 0L0 0Z" fill="#fa9547"></path><path d="M0 -61.8C3.7 -55.5 7.5 -49.3 13.1 -48.7C18.6 -48.2 26.1 -53.4 30.1 -52.1C34.1 -50.8 34.6 -43.1 39.1 -39.1C43.6 -35.1 52 -34.9 53.5 -30.9C55.1 -26.9 49.8 -19.2 50.1 -13.4C50.3 -7.6 56.1 -3.8 61.8 0L0 0Z" fill="#fcaf3c"></path></g></svg>